<?xml version="1.0" encoding="UTF-8" standalone="no"?>
<svg
   xmlns:dc="http://purl.org/dc/elements/1.1/"
   xmlns:cc="http://creativecommons.org/ns#"
   xmlns:rdf="http://www.w3.org/1999/02/22-rdf-syntax-ns#"
   xmlns:svg="http://www.w3.org/2000/svg"
   xmlns="http://www.w3.org/2000/svg"
   xmlns:sodipodi="http://sodipodi.sourceforge.net/DTD/sodipodi-0.dtd"
   xmlns:inkscape="http://www.inkscape.org/namespaces/inkscape"
   version="1.1"
   id="Layer_1"
   x="0px"
   y="0px"
   viewBox="0 0 99.999673 33.214292"
   xml:space="preserve"
   sodipodi:docname="logo_edp_105.svg"
   width="99.99968"
   height="33.214291"
   inkscape:version="1.0.2-2 (e86c870879, 2021-01-15)"><metadata
   id="metadata70"><rdf:RDF><cc:Work
       rdf:about=""><dc:format>image/svg+xml</dc:format><dc:type
         rdf:resource="http://purl.org/dc/dcmitype/StillImage" /><dc:title></dc:title></cc:Work></rdf:RDF></metadata><defs
   id="defs68" /><sodipodi:namedview
   pagecolor="#ffffff"
   bordercolor="#666666"
   borderopacity="1"
   objecttolerance="10"
   gridtolerance="10"
   guidetolerance="10"
   inkscape:pageopacity="0"
   inkscape:pageshadow="2"
   inkscape:window-width="1920"
   inkscape:window-height="1017"
   id="namedview66"
   showgrid="false"
   inkscape:zoom="1.0096331"
   inkscape:cx="-162.36833"
   inkscape:cy="51.147143"
   inkscape:window-x="-8"
   inkscape:window-y="-8"
   inkscape:window-maximized="1"
   inkscape:current-layer="Layer_1"
   fit-margin-top="0"
   fit-margin-left="0"
   fit-margin-right="0"
   fit-margin-bottom="0" />
<style
   type="text/css"
   id="style41">
	.st0{fill:#242E7C;}
	.st1{fill:#D62725;}
	.st2{fill:none;}
</style>
<g
   id="g59"
   transform="matrix(0.31055901,0,0,0.31055901,-39.332618,-103.39441)">
	<path
   class="st0"
   d="m 264.96,390.96 v 0.85 c 0,2.21 1.39,3.67 4,3.67 2.33,0 3.88,-0.99 3.88,-3.01 0,-1.65 -1.28,-2.4 -2.77,-2.87 l -5.38,-1.65 c -4.22,-1.27 -6.38,-3.48 -6.38,-7.05 0,-4.19 3.11,-7.62 10.99,-7.62 6.94,0 10.21,2.63 10.21,7.19 v 1.03 h -6.88 c 0,-2.54 -0.89,-3.81 -3.38,-3.81 -1.94,0 -3.61,0.94 -3.61,2.73 0,1.22 0.78,2.26 3.33,2.96 l 4.61,1.32 c 4.83,1.36 6.6,3.43 6.6,7.24 0,5.31 -4.66,7.95 -11.1,7.95 -8.6,0 -10.99,-3.2 -10.99,-8.04 v -0.89 z"
   id="path43" />
	<path
   class="st0"
   d="m 298.37,383.06 c 0,-2.45 -0.55,-5.08 -3.44,-5.08 -3.77,0 -4.38,2.82 -4.38,8.65 0,6.25 0.67,8.84 4.11,8.84 2.55,0 3.72,-1.83 3.72,-5.93 h 7.32 c 0,6.63 -3.27,10.35 -11.38,10.35 -7.66,0 -11.43,-3.15 -11.43,-13.31 0,-10.39 5.05,-13.31 12.1,-13.31 7.05,0 10.71,3.81 10.71,9.78 h -7.33 z"
   id="path45" />
	<path
   class="st0"
   d="m 309.96,365.28 h 7.66 v 5.55 h -7.66 z m 0,8.65 h 7.66 v 25.3 h -7.66 z"
   id="path47" />
	<path
   class="st0"
   d="m 329.55,387.57 v 2.02 c 0,2.96 0.94,5.88 3.77,5.88 2.55,0 3.61,-1.65 4.05,-4.75 h 6.88 c -0.28,5.88 -3.61,9.17 -10.82,9.17 -11.1,0 -11.54,-7.24 -11.54,-13.54 0,-6.77 1.55,-13.07 11.87,-13.07 8.93,0 10.93,5.08 10.93,12.84 v 1.46 h -15.14 z m 7.83,-3.85 c -0.17,-3.86 -0.72,-6.02 -3.88,-6.02 -3.05,0 -3.94,2.68 -3.94,5.03 v 0.99 z"
   id="path49" />
	<path
   class="st0"
   d="m 348.7,373.93 h 7.32 v 2.96 h 0.11 c 1.61,-2.49 4.38,-3.62 7.6,-3.62 4.77,0 7.6,2.21 7.6,7.19 v 18.76 h -7.66 v -17.45 c 0,-2.54 -1,-3.53 -3.27,-3.53 -2.61,0 -4.05,1.36 -4.05,4.19 v 16.79 h -7.66 v -25.29 z"
   id="path51" />
	<path
   class="st0"
   d="m 390.81,383.06 c 0,-2.45 -0.55,-5.08 -3.44,-5.08 -3.77,0 -4.38,2.82 -4.38,8.65 0,6.25 0.67,8.84 4.11,8.84 2.55,0 3.72,-1.83 3.72,-5.93 h 7.32 c 0,6.63 -3.27,10.35 -11.38,10.35 -7.66,0 -11.43,-3.15 -11.43,-13.31 0,-10.39 5.05,-13.31 12.1,-13.31 7.05,0 10.71,3.81 10.71,9.78 h -7.33 z"
   id="path53" />
	<path
   class="st0"
   d="m 408.68,387.57 v 2.02 c 0,2.96 0.94,5.88 3.77,5.88 2.55,0 3.61,-1.65 4.05,-4.75 h 6.88 c -0.28,5.88 -3.61,9.17 -10.82,9.17 -11.1,0 -11.54,-7.24 -11.54,-13.54 0,-6.77 1.55,-13.07 11.87,-13.07 8.93,0 10.93,5.08 10.93,12.84 v 1.46 h -15.14 z m 7.83,-3.85 c -0.17,-3.86 -0.72,-6.02 -3.88,-6.02 -3.05,0 -3.94,2.68 -3.94,5.03 v 0.99 z"
   id="path55" />
	<path
   class="st0"
   d="m 433.43,390.96 v 0.85 c 0,2.21 1.39,3.67 4,3.67 2.33,0 3.88,-0.99 3.88,-3.01 0,-1.65 -1.28,-2.4 -2.77,-2.87 l -5.38,-1.65 c -4.22,-1.27 -6.38,-3.48 -6.38,-7.05 0,-4.19 3.11,-7.62 10.99,-7.62 6.94,0 10.21,2.63 10.21,7.19 v 1.03 h -6.88 c 0,-2.54 -0.89,-3.81 -3.38,-3.81 -1.94,0 -3.61,0.94 -3.61,2.73 0,1.22 0.78,2.26 3.33,2.96 l 4.61,1.32 c 4.83,1.36 6.6,3.43 6.6,7.24 0,5.31 -4.66,7.95 -11.1,7.95 -8.6,0 -10.99,-3.2 -10.99,-8.04 v -0.89 z"
   id="path57" />
</g>
<path
   class="st1"
   d="m 31.63633,10.074534 c -3.441,0 -5.00311,2.888199 -6.51243,5.68323 -1.35093,2.5 -2.62733,4.860249 -5.13664,4.860249 -1.01242,0 -1.97205,-0.400622 -2.70497,-1.130435 -0.78882,-0.785715 -1.2236,-1.844721 -1.2236,-2.984472 0,-2.270187 1.76087,-4.118013 3.92857,-4.118013 2.39441,0 3.72049,2.304348 3.73292,2.326087 l 0.1118,0.195652 L 25.0649,12.791926 25.0494,0 22.63636,2.338509 c 0,0 0.009,7.903727 0.009,8.282609 -0.85714,-0.413043 -1.76708,-0.636646 -2.65528,-0.636646 -2.53726,0 -4.76708,1.540373 -5.77329,3.937888 -1.08074,-2.195652 -3.22671,-3.577639 -5.68012,-3.611801 -3.70497,0 -6.60559,2.822982 -6.60559,6.428572 0.0248,3.518633 2.97515,6.381987 6.58074,6.381987 2.0559,0 3.41926,-1.003105 4.53727,-1.944099 l 0.1118,-0.09317 -1.75776,-1.661491 -0.087,0.08696 c -0.84161,0.81677 -1.75776,1.223602 -2.80124,1.242236 -2.13354,0 -3.6646,-1.559006 -3.86025,-3.003106 0,0 -0.006,-0.04037 -0.009,-0.07453 h 9.14907 c 0.54658,3.037267 3.19255,5.329193 6.20186,5.344721 3.64907,0.01553 5.36336,-3.142857 6.87268,-5.931677 1.30124,-2.400621 2.53105,-4.667702 4.77018,-4.611802 2.20497,0.05279 3.92857,1.860249 3.92857,4.118013 0,2.270186 -1.76087,4.114907 -3.92546,4.114907 -1.71429,0 -3.03416,-1.170808 -3.87888,-2.04969 l -1.47205,2.475156 -0.003,10.232919 2.37267,1.847826 c 0,0 0,-10.431677 0,-10.801242 1.03727,0.459627 2.04037,0.698757 2.98137,0.698757 3.49068,0 6.32919,-2.92236 6.32919,-6.515528 -0.006,-3.599378 -2.84472,-6.521739 -6.3354,-6.521739 z m -27.0559,5.381988 c 0.27018,-0.621118 1.37888,-2.754659 3.82919,-2.801242 2.4441,0 3.48447,2.177018 3.72981,2.801242 -0.34472,0 -7.20186,0 -7.559,0 z"
   id="path61"
   style="stroke-width:0.310559" />
<path
   class="st2"
   d="M 0.009,25.273292 V 25.42236 C 0.009,25.37267 0.006,25.319876 0,25.270186"
   id="path63"
   style="stroke-width:0.310559" />
</svg>
